<svg width="14" height="12" viewBox="0 0 14 12" fill="none" xmlns="http://www.w3.org/2000/svg">
<path d="M5.6805 11.2359C5.61283 11.17 5.3235 10.9211 5.0855 10.6892C3.58867 9.32992 1.13867 5.78389 0.390834 3.92791C0.270667 3.64605 0.0163334 2.93343 -1.21827e-07 2.55269C-1.04415e-07 2.18785 0.0840005 1.84007 0.254334 1.5082C0.492334 1.0945 0.866834 0.762623 1.309 0.580776C1.39413 0.548295 1.52633 0.510827 1.67327 0.47364C2.25239 0.327077 2.84526 0.221957 3.43925 0.158416C4.40321 0.055297 5.64953 -3.34314e-07 6.99067 -2.80621e-07C7.96772 -2.41504e-07 8.89538 0.0323302 9.70137 0.0875914C10.737 0.1586 11.9175 0.175865 12.8427 0.646696C13.5567 1.01153 14 1.72414 14 2.48677L14 2.55269C13.9654 3.53511 13.2735 4.68227 12.7821 5.53366C11.7894 7.25355 10.2379 9.42471 9.06286 10.551C8.95282 10.6565 8.84198 10.7601 8.73046 10.864C8.59237 10.9927 8.39525 11.1689 8.2495 11.2689C7.8925 11.5348 7.45033 11.6667 7.00817 11.6667C6.51467 11.6667 6.055 11.5178 5.6805 11.2359Z" fill="#4D4040"/>
</svg>
